<?xml version="1.0" encoding="utf-8"?>
<!-- Generator: Adobe Illustrator 19.2.1, SVG Export Plug-In . SVG Version: 6.00 Build 0)  -->
<!DOCTYPE svg PUBLIC "-//W3C//DTD SVG 1.1//EN" "http://www.w3.org/Graphics/SVG/1.1/DTD/svg11.dtd">
<svg version="1.1" id="Layer_1" xmlns="http://www.w3.org/2000/svg" xmlns:xlink="http://www.w3.org/1999/xlink" x="0px" y="0px"
	 viewBox="0 0 100 100" enable-background="new 0 0 100 100" xml:space="preserve">
<g>
	<path d="M46,53.9V58h3v-5c0,0-2.1,0-3,0C46,53,46,53.9,46,53.9z"/>
	<path d="M54.1,55.9c0-0.6-0.1-1.1-0.2-1.4c-0.2-0.3-0.4-0.6-0.7-0.7c-0.3-0.2-0.5-0.2-1-0.3c-0.4,0-1.3,0-1.3,0v4.9
		c1,0,1.9-0.2,2.5-0.7C54,57.3,54.1,56.7,54.1,55.9z"/>
	<path d="M46,61.5c0,1.4,0,5.5,0,5.5h3c0,0,0-6,0-6c-0.7,0-3,0-3,0S46,61.4,46,61.5z"/>
	<path d="M53.8,61.7C53,61.2,52.1,61,51.3,61H51c0,0,0,6,0,6c0,0.2,1.9-0.3,2.1-0.4c0.4-0.1,0.7-0.4,1-0.7c0.3-0.2,0.5-0.6,0.6-1
		c0.1-0.4,0.2-0.8,0.2-1.2c0-0.5-0.1-0.9-0.3-1.3C54.4,62.2,54.1,61.9,53.8,61.7z"/>
	<path d="M57.1,38.4c0.2-0.1,0.4-0.4,0.4-0.7c0-0.4-0.3-0.8-0.7-0.8c0.4,0,0.7-0.6,0.7-1c0-0.4-0.3-1-0.7-1c0.4,0,0.7-0.6,0.7-1
		c0-0.4-0.3-1-0.7-1h-0.5l6.7-4.7c1.6-1.1,1.4-3.5-0.3-4.3c0,0-5,0.4-5.4-0.9c-0.1-0.4,1.3-1.4,1.3-1.4c1-1.7-0.2-3.5-2.1-3.5
		c0,0-4.6,0.9-6.2,0.9c-1.6,0-6.4-0.9-6.4-0.9c-1.9,0-3.1,1.9-2.2,3.5c0,0,0.8,0.8,0.6,1.1c-0.5,1.2-4.8,1.3-4.8,1.3
		c-1.7,0.8-2,3.2-0.4,4.3l6.5,4.5c-0.3,0.1-0.6,0.6-0.6,1c0,0.4,0.3,1,0.7,1c-0.4,0-0.7,0.6-0.7,1c0,0.4,0.3,1,0.7,1
		c-0.4,0-0.7,0.4-0.7,0.8c0,0.3,0.2,0.5,0.4,0.6c-10.3,5.2-17.8,20.8-17.8,32c0,13.6,11,11.1,24.7,11.1s24.7,2.6,24.7-11
		C74.9,59.2,67.4,43.6,57.1,38.4z M58.1,65.2c-0.1,0.5-0.3,0.9-0.5,1.3c-0.2,0.4-0.5,0.8-0.9,1.2C55.1,69.3,53,69,51,69v2.4
		c0,0.1-0.1,0.2-0.2,0.3s-0.1,0.2-0.2,0.3c-0.1,0.1-0.2,0.2-0.3,0.2c-0.1,0.1-0.2,0.1-0.3,0.1c-0.1,0-0.2,0-0.3-0.1
		c-0.1-0.1-0.2-0.1-0.2-0.2s-0.3-0.2-0.3-0.3c0-0.1-0.2-0.2-0.2-0.3V69h-4.5c-0.2,0-0.4,0.2-0.6,0.1c-0.2-0.1-0.4-0.1-0.5-0.2
		s-0.2-0.3-0.3-0.5c-0.1-0.2,0-0.4,0-0.6V52.2c0-0.2,0-0.4,0-0.6c0.1-0.2,0.2-0.4,0.3-0.5s0.3-0.1,0.5-0.2c0.2-0.1,0.4,0.1,0.6,0.1
		H49v-2.1c0-0.1,0.2-0.2,0.2-0.3c0-0.1,0.2-0.2,0.2-0.3c0.1-0.1,0.2-0.2,0.3-0.2C49.8,48,49.9,48,50,48c0.1,0,0.2,0,0.3,0.1
		c0.1,0.1,0.2,0.1,0.2,0.2c0.1,0.1,0.2,0.2,0.3,0.3c0,0.1,0.2,0.2,0.2,0.3v1.7c0,0,1,0,1.5,0.1c0.5,0.1,1,0.1,1.5,0.3
		c0.5,0.1,0.9,0.3,1.3,0.5c0.4,0.2,0.8,0.5,1.1,0.9s0.5,0.8,0.7,1.3c0.2,0.5,0.3,1.1,0.3,1.7c0,0.9-0.2,1.7-0.5,2.4
		c-0.3,0.7-0.8,1.2-1.5,1.7c0.5,0.2,0.9,0.4,1.2,0.7c0.3,0.3,0.6,0.6,0.9,1c0.2,0.4,0.4,0.8,0.5,1.2s0.2,0.9,0.2,1.4
		C58.2,64.3,58.2,64.8,58.1,65.2z"/>
</g>
</svg>
