<?xml version="1.0" encoding="utf-8"?>
<!-- Generator: Adobe Illustrator 19.2.1, SVG Export Plug-In . SVG Version: 6.00 Build 0)  -->
<!DOCTYPE svg PUBLIC "-//W3C//DTD SVG 1.1//EN" "http://www.w3.org/Graphics/SVG/1.1/DTD/svg11.dtd">
<svg version="1.1" id="Layer_1" xmlns="http://www.w3.org/2000/svg" xmlns:xlink="http://www.w3.org/1999/xlink" x="0px" y="0px"
	 viewBox="0 0 100 100" enable-background="new 0 0 100 100" xml:space="preserve">
<g>
	<path d="M50,49.8c5.3,0,9.6-7.7,9.6-13c0-5.3-4.3-9.6-9.6-9.6c-5.3,0-9.6,4.3-9.6,9.6C40.4,42.1,44.7,49.8,50,49.8z"/>
	<path d="M62.5,55.8l-4.9,7.1l-4.3,6.3L51.8,58l2.6-5h-8.6l2.6,5l-1.6,11.3l-4.3-6.6l-4.9-7c-2.7,1.9-4.9,4.5-6.4,7.4
		c4.2,6.1,11.2,10.1,19.1,10.1c6.3,0,12.1-2.4,16.5-6.8c0.9-0.9,1.7-1.8,2.4-2.8C67.6,60.5,65.3,57.8,62.5,55.8z"/>
	<path d="M80.2,56.7l10-1.1l0-11.3l-10-1.1c-0.8-3.5-2.2-6.7-4-9.6l6.3-7.9l-8-8L66.5,24c-2.9-1.8-6.1-3.2-9.5-3.9L55.8,10l-11.3,0
		l-1.1,10.1c-3.4,0.8-6.7,2.2-9.6,4l-8-6.4l-8,8l6.4,7.9c-1.8,2.9-3.2,6.1-3.9,9.5l-10.1,1.1l0,11.3l10.1,1.1c0.8,3.4,2.1,6.6,4,9.5
		l-6.4,8l8,8l7.9-6.4c2.9,1.8,6.2,3.2,9.6,4L44.7,90L56,90l1.1-10.1c3.5-0.8,6.7-2.2,9.6-4l7.9,6.3l8-8l-6.4-7.9
		C78.1,63.4,79.4,60.1,80.2,56.7z M50.3,75.5c-14.1,0-25.5-11.4-25.6-25.5c0-14.1,11.4-25.5,25.5-25.6c14.1,0,25.5,11.4,25.6,25.5
		C75.8,64,64.4,75.5,50.3,75.5z"/>
</g>
</svg>
