<?xml version="1.0" encoding="utf-8"?>
<!-- Generator: Adobe Illustrator 19.2.1, SVG Export Plug-In . SVG Version: 6.00 Build 0)  -->
<!DOCTYPE svg PUBLIC "-//W3C//DTD SVG 1.1//EN" "http://www.w3.org/Graphics/SVG/1.1/DTD/svg11.dtd">
<svg version="1.1" id="Layer_1" xmlns="http://www.w3.org/2000/svg" xmlns:xlink="http://www.w3.org/1999/xlink" x="0px" y="0px"
	 viewBox="0 0 100 100" enable-background="new 0 0 100 100" xml:space="preserve">
<path d="M49.8,18.6l-24.2,6.2c-0.4,0.1-0.7,0.5-0.7,1l2,39.6c0,0.3,0.2,0.5,0.4,0.7l22.1,16.3c0.3,0.2,0.8,0.2,1.1,0l22.1-16.3
	c0.2-0.2,0.4-0.4,0.4-0.7l2-39.6c0-0.5-0.3-0.9-0.7-1l-24.2-6.2C50.1,18.6,49.9,18.6,49.8,18.6z M67.3,62.5L50.6,74.9
	c-0.3,0.2-0.8,0.2-1.1,0L32.7,62.5c-0.2-0.2-0.4-0.4-0.4-0.7l-1.5-31.6c0-0.5,0.3-0.9,0.7-1l18.2-4.7c0.2,0,0.3,0,0.5,0l18.2,4.7
	c0.4,0.1,0.7,0.5,0.7,1l-1.5,31.6C67.6,62.1,67.5,62.4,67.3,62.5z"/>
<g>
	<path d="M52.5,59.9c-1.1,0-2-0.5-2.7-1.5l1.5-1.1c0.5,0.7,0.9,0.8,1.2,0.8c0.2,0,0.5-0.1,0.8-0.2l0.7,1.7
		C53.5,59.8,53,59.9,52.5,59.9z M56.1,58.4L55,56.9c0.3-0.2,0.6-0.4,0.9-0.7c0.7-0.5,1.4-1,2-1.4l0.9,1.6c-0.6,0.4-1.2,0.8-1.9,1.3
		C56.7,57.9,56.4,58.2,56.1,58.4z M48.7,56.2c-0.5-1.2-0.8-2.3-1-3.6l1.8-0.3c0.2,1.1,0.5,2.2,0.9,3.2L48.7,56.2z M60.6,55.8l0-1.8
		c1.8,0,2.1-0.7,2.2-0.9l1.7,0.8C63.8,55.2,62.5,55.8,60.6,55.8z M38,53.6c-1.2-0.3-1.9-1.4-1.9-2.9c0-0.4,0.1-0.9,0.2-1.2
		c0,0,0-0.1,0-0.1l1.7,0.6c0,0.1,0,0.1-0.1,0.2c-0.1,0.1-0.1,0.3-0.1,0.5c0,0.2,0,0.9,0.6,1.1L38,53.6z M40.8,53.2l-0.7-1.7
		c1.3-0.6,2.1-1.1,2.7-1.6l0.1-0.1l1.1,1.5l-0.1,0.1C43.2,51.9,42.3,52.6,40.8,53.2z M62.9,51.4c0-0.4-0.1-0.9-0.3-1.5
		c-0.1-0.5-0.3-0.9-0.6-1.3l1.4-1.2c0.5,0.6,0.8,1.3,1,2.1c0.2,0.7,0.2,1.2,0.3,1.8L62.9,51.4z M47.3,50.5c0-0.2-0.1-0.4-0.1-0.4
		c0,0-0.1,0-0.1,0h0c-0.1,0-0.2,0-0.4,0c-0.4,0.1-0.7,0.1-1,0.3l-0.6-1.7c0.4-0.1,0.8-0.5,1.3-0.6c0.2,0,0.5-0.3,0.7-0.3
		c0,0,0,0,0,0c1.7,0,1.9,1.7,2,2.2L47.3,50.5z M47.2,50.1L47.2,50.1L47.2,50.1z M38,48l-1.7-0.7l0-0.1c0.2-0.6,0.9-1.6,1.9-3.2
		l1.5,1C38.5,47,38.1,47.7,38,48L38,48z M60.6,47.6c-0.5-0.2-0.9-0.2-1-0.2c-0.3,0-1.2,0-2.4-0.2l0.3-1.8c1.1,0.2,2,0.2,2.1,0.2
		l0.1,0.1l0-0.1c0.1,0,0.7,0.1,1.5,0.4L60.6,47.6z M54.9,46.5c-1-0.4-1.8-0.9-2.4-1.5c-0.3-0.3-0.5-0.7-0.8-1.1l1.6-0.9
		c0.2,0.3,0.3,0.5,0.6,0.8c0.4,0.4,0.9,0.8,1.7,1L54.9,46.5z M40.9,43.2l-1.5-1c0.6-0.9,1-1.6,1.2-1.8c0.1-0.2,0.2-0.7,0.5-1.2
		l1.6,0.9c-0.2,0.5-0.3,0.9-0.3,0.9l0,0.2l-0.1,0.2C42.3,41.2,41.7,42.1,40.9,43.2z M50.8,42c-0.3-0.5-0.9-1.2-2.3-2l0.9-1.6
		c1.4,0.8,2.3,1.6,2.9,2.7L50.8,42z M46.6,39c-1.1-0.4-2-0.5-2.7-0.1l-0.8-1.7c1.2-0.5,2.6-0.5,4.2,0.1L46.6,39z"/>
</g>
</svg>
