<?xml version="1.0" encoding="utf-8"?>
<!-- Generator: Adobe Illustrator 19.2.1, SVG Export Plug-In . SVG Version: 6.00 Build 0)  -->
<!DOCTYPE svg PUBLIC "-//W3C//DTD SVG 1.1//EN" "http://www.w3.org/Graphics/SVG/1.1/DTD/svg11.dtd">
<svg version="1.1" id="Layer_1" xmlns="http://www.w3.org/2000/svg" xmlns:xlink="http://www.w3.org/1999/xlink" x="0px" y="0px"
	 viewBox="0 0 100 100" enable-background="new 0 0 100 100" xml:space="preserve">
<path d="M73.5,68.4c0.1,0,0.2,0,0.3,0l0-0.3c0.5-0.6,1-1.3,1.4-1.9c3.1-4.7,4.9-10.3,4.9-16.3c0-16.4-13.3-29.7-29.7-29.7
	S20.6,33.5,20.6,49.9c0,12.1,7.3,22.6,17.7,27.2c3.7,1.6,7.7,2.5,12,2.5C59.7,79.6,68.1,75.2,73.5,68.4z M37.3,68.2l9.7-9.7v13.7
	C43,71.7,40.1,70.2,37.3,68.2z M63.8,68.2c-2.8,2.1-5.8,3.5-9.8,4.1V58.4L63.8,68.2z M68.7,63.2L54,48.4V27.5
	c11,1.7,19.1,11.1,19.1,22.4C73.1,54.8,71.4,59.4,68.7,63.2z M47,27.5v21L32.2,63.2c-2.8-3.8-4.3-8.4-4.3-13.4
	C27.8,38.6,36,29.2,47,27.5z"/>
</svg>
