<?xml version="1.0" encoding="utf-8"?>
<!-- Generator: Adobe Illustrator 19.2.1, SVG Export Plug-In . SVG Version: 6.00 Build 0)  -->
<!DOCTYPE svg PUBLIC "-//W3C//DTD SVG 1.1//EN" "http://www.w3.org/Graphics/SVG/1.1/DTD/svg11.dtd">
<svg version="1.1" id="Layer_1" xmlns="http://www.w3.org/2000/svg" xmlns:xlink="http://www.w3.org/1999/xlink" x="0px" y="0px"
	 viewBox="0 0 100 100" enable-background="new 0 0 100 100" xml:space="preserve">
<g>
	<path d="M53.4,39.6c0.4-0.5,0.5-0.9,0.5-1.2c0-0.4-0.1-0.8-0.2-1.2c-0.2-0.4-0.3-0.7-0.5-0.9c-0.9-0.9-1.9-1.4-2.9-1.6l0,6.5l0,1
		c0.6-0.2,1.2-0.5,1.8-1C52.5,40.7,53,40.1,53.4,39.6z"/>
	<path d="M54.2,46.2c-1-0.6-2.2-1.2-3.6-1.2h-0.5c0,1,0,4,0,8.2c1.9-0.1,3.3-0.5,4.3-1.2c1-0.8,1.4-2,1.4-3.4
		C55.7,47.7,55.2,46.8,54.2,46.2z"/>
	<path d="M44.3,42.6l1.5,0l2.2-0.2v-7.9c-2,0-2.4,0.2-3.7,0.5L44.3,42.6z"/>
	<path d="M44.5,49.6c0,0.8,0,1.2,0,1.4c0,0.3,0,0.6,0,0.9c0,0.6-0.3,1-0.3,1.4c1.1,0.1,1.7,0.2,2.7,0.3V53c0-0.4,0.3-1.3,0.4-2.7
		l0.3-4.6c-0.7,0.1-1.8,0.2-3.3,0.3C44.4,47.1,44.5,48.3,44.5,49.6z"/>
	<path d="M83.5,51.1c0-18.3-15-33.1-33.3-33.1c-18.3,0-33.6,14.8-33.6,33.1c0,6.3,2.4,12.2,4.4,17.3V53.8c0-0.6,0.9-0.8,1.5-0.8h7.6
		c0.5,0,0.8,0.1,0.8,0.7v24.6c1,0.5,1,1,2,1.5V64.2c0-0.7,1-1.2,1.7-1.2h6.7c0.7,0,1.6,0.5,1.6,1.2v19.2c0,0.2,1.4,0.3,2.2,0.4
		c0,0-0.2-0.1-0.2-0.1V68.2c0-0.7,0.4-1.2,1.1-1.2h7.3c0.7,0,1.6,0.5,1.6,1.2v15.5c0,0-0.2,0.1-0.2,0.1c0.8-0.1,1.2-0.3,2.2-0.4
		V64.2c0-0.7,1-1.2,1.7-1.2h6.1c0.7,0,1.2,0.5,1.2,1.2v15.5c1-0.5,2-1,2-1.5V53.8c0-0.6,0.8-0.8,1.4-0.8h7.8c0.7,0,1.8,0.3,1.8,1
		v14.3C81,63.3,83.5,57.4,83.5,51.1z M58.6,53c-1,1.3-2.2,2.3-3.9,3c-1.3,0.5-2.8,0.8-4.7,0.8l0,1.1c0,0.6,0,1,0,1.1
		c0,0.2-0.1,0.4-0.3,0.6c-0.2,0.1-0.4,0.2-0.7,0.2c-0.4,0-0.7-0.1-1-0.4c-0.3-0.2-0.4-0.6-0.4-0.9c0-0.9,0-1.5,0-1.7
		c-2,0-3.8-0.2-5.4-0.6c-0.5-0.1-0.9-0.3-1.3-0.7c-0.4-0.3-0.6-0.8-0.6-1.3c-0.1-3.1-0.2-6.5-0.3-10.3l0-2.2
		c-0.1-3.1-0.2-5.7-0.2-8.1c0-0.4,0.2-0.8,0.7-1.2c0.4-0.4,0.9-0.7,1.5-0.7l1-0.1c1.3-0.2,2-0.2,1.9-0.2c1-0.1,1.9-0.2,2.9-0.2
		c0-0.7,0-1.2,0-1.5c0-0.5,0.1-0.8,0.3-1c0.2-0.2,0.5-0.3,0.8-0.3c0.5,0,0.8,0.2,1,0.5c0.2,0.3,0.3,0.8,0.3,1.5l0,0.9
		c1.5,0.1,2.7,0.4,3.8,0.8c1.1,0.4,2,1,2.8,1.9c0.4,0.4,0.6,1,0.9,1.7c0.2,0.7,0.3,1.3,0.3,1.9c0,1.2-0.4,2.4-1.1,3.4
		c-0.7,1-1.7,1.8-2.9,2.3c1.9,0.3,3.4,0.9,4.4,1.9c1,1,1.5,2.2,1.5,3.7C60,50.3,59.6,51.7,58.6,53z"/>
	<path d="M50.1,10.9c-22.1,0-40,17.9-40,40s17.9,40,40,40c22.1,0,40-17.9,40-40S72.2,10.9,50.1,10.9z M50.1,87.1
		c-20,0-36.2-16.2-36.2-36.2c0-20,16.2-36.2,36.2-36.2c20,0,36.2,16.2,36.2,36.2C86.3,70.9,70.1,87.1,50.1,87.1z"/>
</g>
</svg>
