<?xml version="1.0" encoding="utf-8"?>
<!-- Generator: Adobe Illustrator 19.2.1, SVG Export Plug-In . SVG Version: 6.00 Build 0)  -->
<!DOCTYPE svg PUBLIC "-//W3C//DTD SVG 1.1//EN" "http://www.w3.org/Graphics/SVG/1.1/DTD/svg11.dtd">
<svg version="1.1" id="Layer_1" xmlns="http://www.w3.org/2000/svg" xmlns:xlink="http://www.w3.org/1999/xlink" x="0px" y="0px"
	 viewBox="0 0 100 100" enable-background="new 0 0 100 100" xml:space="preserve">
<path d="M62.4,51.5c-3.3-4-9.4-7.4-12.4-7.7V38l1.2-1.5c0.2,0.2,0.3,0.3,0.6,0.5c2.5,1.2,5.1-0.4,6.4-2.6c1.2-2.1,1.6-4.9,1.9-7.1
	c0,0-4.9-0.8-7.9,1.7c-1.7,1.4-2.7,4.5-1.7,6.6L50,36.3v-6.1c0,0,0-0.1,0.2-0.1c2.6-0.9,3.3-4,2.6-6.4c-0.6-2.3-2.4-4.6-3.7-6.4
	c0,0-4.2,2.9-4.6,6.8c-0.2,2.3,1.5,5.7,3.5,6.1v6.1l-0.7-0.8c0,0,0.1,0,0.1,0c1.2-2.5-0.4-5.2-2.5-6.4c-2.1-1.2-4.9-1.6-7.1-1.9
	c0,0-0.8,4.9,1.7,7.9c1.5,1.9,5.2,3.3,7.2,1.5L48,38v5.8c-3,0.3-8.2,3.1-11.3,6.6l12.1,5.3L62.4,51.5z"/>
<path d="M97.2,50.6l-5.4-1.6l-8.3-1.8c-0.6-0.2-1.2-0.2-1.8,0L49.7,58.1c-0.7,0.2-1.5,0.2-2.3-0.1L17.4,44.6
	c-0.2-0.1-0.4-0.2-0.6-0.2C14.9,44,13,45.5,13,47.5v1.6c0,1,0.4,1.9,1.2,2.5c0.1,0.1,0.2,0.1,0.3,0.2l34.9,21.2
	c0.7,0.4,1.4,0.5,2.2,0.4l33-5.6c0.3-0.1,0.6-0.1,0.9,0l7.5-1.8l1.9,0.2c1.8,0.2,3.3-1.1,3.5-2.8l1.1-9.4
	C99.6,52.5,98.7,51.1,97.2,50.6z"/>
</svg>
