<?xml version="1.0" encoding="utf-8"?>
<!-- Generator: Adobe Illustrator 19.2.1, SVG Export Plug-In . SVG Version: 6.00 Build 0)  -->
<!DOCTYPE svg PUBLIC "-//W3C//DTD SVG 1.1//EN" "http://www.w3.org/Graphics/SVG/1.1/DTD/svg11.dtd">
<svg version="1.1" id="Layer_1" xmlns="http://www.w3.org/2000/svg" xmlns:xlink="http://www.w3.org/1999/xlink" x="0px" y="0px"
	 viewBox="0 0 100 100" enable-background="new 0 0 100 100" xml:space="preserve">
<path d="M17.2,36.6c-0.5,0.4-0.2,1.4,0.5,1.4H23v14.6l20.7-18.8c0,0,0.1-0.1,0.2-0.1c0.5-0.4,1.2-0.6,1.8-0.6c0.7,0,1.3,0.2,1.8,0.6
	c0,0,0.1,0.1,0.1,0.1l1.8,1.6l1.6-1.5L36.2,20.1c-0.3-0.2-1.1-0.3-1.4-0.1L28,26v-1.6v-0.9c0-0.3,0.7-0.5,0.4-0.5h-3.8
	c-0.3,0-0.7,0.2-0.7,0.5v5.4v1.6L17.2,36.6z"/>
<path d="M82.9,45.4l-7.9-7V31c0-0.3-0.4-1-0.7-1h-4.1c-0.5,0-1.2,0.8-1.2,1.3V33l-6.6-6.2c-0.3-0.2-0.6-0.3-0.9-0.1l-10.7,9.9
	l2.7,2.2c0.4-1,1.3-1.9,2.5-1.9h5.2c1.6,0,2.8,1.6,2.8,3.2v8.6l8.7,7.9c0.9,0.8,1.3,2.1,0.9,3.2c-0.4,1.2-1.5,2.1-2.7,2.1H65v4h11.1
	c0.4,0,0.9-0.3,0.9-0.7V47h5.4C83.2,47,83.5,45.9,82.9,45.4z"/>
<path d="M71.4,58.2L62,49.6v-9.4c0-0.5-0.3-1.2-0.8-1.2H56c-0.5,0-1,0.6-1,1.2v3l-8.7-7.9c-0.4-0.3-0.9-0.3-1.2,0l-25.1,23
	c-0.7,0.6-0.3,1.8,0.6,1.8H28v22.8c0,0.6,0.6,1.2,1.2,1.2h1.6h31.5c0.6,0,1.7-0.6,1.7-1.2V60h6.8C71.8,60,72.1,58.7,71.4,58.2z"/>
</svg>
