<?xml version="1.0" encoding="utf-8"?>
<!-- Generator: Adobe Illustrator 19.2.1, SVG Export Plug-In . SVG Version: 6.00 Build 0)  -->
<!DOCTYPE svg PUBLIC "-//W3C//DTD SVG 1.1//EN" "http://www.w3.org/Graphics/SVG/1.1/DTD/svg11.dtd">
<svg version="1.1" id="Layer_1" xmlns="http://www.w3.org/2000/svg" xmlns:xlink="http://www.w3.org/1999/xlink" x="0px" y="0px"
	 viewBox="0 0 100 100" enable-background="new 0 0 100 100" xml:space="preserve">
<path d="M73.4,26.4c-8.8-3.6-18.8,0.1-22.4,8.8c-0.1,0.2-0.2,0.5-0.3,0.8c-0.1-0.3-0.2-0.6-0.2-0.8c-3.2-8.9-13-13.1-21.9-10
	c-8.9,3.2-11.8,15.4-8.8,23.8c2.6,7.4,22.8,28.2,28.4,33.9c0.7,0.8,1.9,0.8,2.7,0.1c5.9-5.4,27.2-25.1,30.2-32.4
	C84.5,42.3,82.1,30,73.4,26.4z M63,58c0,0.4-0.8,1-1.2,1H55v7c0,0.4-0.7,1-1.1,1h-6.7c-0.4,0-1.2-0.7-1.2-1v-7h-6.7
	c-0.4,0-0.3-0.6-0.3-1v-6.7c0-0.4-0.1-0.4,0.3-0.4H46v-7.5c0-0.4,0.8-0.5,1.2-0.5h6.7c0.4,0,1.1,0.1,1.1,0.5V51h6.8
	c0.4,0,1.2,0,1.2,0.4V58z"/>
</svg>
