<?xml version="1.0" encoding="utf-8"?>
<!-- Generator: Adobe Illustrator 19.2.1, SVG Export Plug-In . SVG Version: 6.00 Build 0)  -->
<!DOCTYPE svg PUBLIC "-//W3C//DTD SVG 1.1//EN" "http://www.w3.org/Graphics/SVG/1.1/DTD/svg11.dtd">
<svg version="1.1" id="Layer_1" xmlns="http://www.w3.org/2000/svg" xmlns:xlink="http://www.w3.org/1999/xlink" x="0px" y="0px"
	 viewBox="0 0 100 100" enable-background="new 0 0 100 100" xml:space="preserve">
<g>
	<path d="M76.6,71L76.6,71l-0.5-0.7c-0.6-1-1.6-1.3-2.7-1.3h-0.9l-2.1-2h-1.1c-4.1-3-5.1-9.8-5.1-9.8l-0.6-3.5
		c-0.3-2.6-1.9-4.7-4-6.7h0.1l-0.9-2h-1.1l-0.6-2H56l-4.7-27h-0.7L46,43h-1.1l-0.6,2h-1.1l-0.8,2.3c-2.2,1.5-3.8,3.8-4,6.5
		c0,0.5-0.4,3-0.4,3.4C37.1,61.5,37,64,32.7,67h-1.1l-2.1,2h-0.9c-1.1,0-2.1,0.4-2.7,1.3L25.4,71h0l-1.3,3h53.7L76.6,71z"/>
	<polygon points="80.1,75 21.9,75 20.5,78 81.5,78 	"/>
</g>
</svg>
