<?xml version="1.0" encoding="utf-8"?>
<!-- Generator: Adobe Illustrator 19.2.1, SVG Export Plug-In . SVG Version: 6.00 Build 0)  -->
<!DOCTYPE svg PUBLIC "-//W3C//DTD SVG 1.1//EN" "http://www.w3.org/Graphics/SVG/1.1/DTD/svg11.dtd">
<svg version="1.1" id="Layer_1" xmlns="http://www.w3.org/2000/svg" xmlns:xlink="http://www.w3.org/1999/xlink" x="0px" y="0px"
	 viewBox="0 0 100 100" enable-background="new 0 0 100 100" xml:space="preserve">
<g>
	<path d="M34.1,56.3l-6.2-24.8L16.3,43.1c0,0,5.6,18.1,9.6,22.2c4.3,4.4,23.9,10.3,23.9,10.3l10.5-10.5l-23.1-5.8
		C35.7,59,34.5,57.8,34.1,56.3z"/>
	<path d="M77.9,84.8L77.8,91h5.2l-0.4-6.2c0-0.9-0.6-1.7-1.6-2V65.9l0.1,0L70.4,23L27.5,12.3L38,55.2l41,10.3v17.3
		C79,83.2,78,83.9,77.9,84.8z"/>
</g>
</svg>
