<?xml version="1.0" encoding="utf-8"?>
<!-- Generator: Adobe Illustrator 19.2.1, SVG Export Plug-In . SVG Version: 6.00 Build 0)  -->
<!DOCTYPE svg PUBLIC "-//W3C//DTD SVG 1.1//EN" "http://www.w3.org/Graphics/SVG/1.1/DTD/svg11.dtd">
<svg version="1.1" id="Layer_1" xmlns="http://www.w3.org/2000/svg" xmlns:xlink="http://www.w3.org/1999/xlink" x="0px" y="0px"
	 viewBox="0 0 100 100" enable-background="new 0 0 100 100" xml:space="preserve">
<g>
	<path d="M44.4,76.3l-1.3-4.5c-0.1-0.5-0.3-1-0.7-1.4c0,0-15.4-16.1-20.5-21.5c-0.4-0.5-0.7-1.1-0.7-1.7C20.9,40.4,20,19.9,20,19.9
		c0-0.2,0-0.4-0.1-0.6c-0.4-1.6-2.2-2.5-3.7-1.7L15,18.2c-0.7,0.4-1.3,1.1-1.4,1.9c0,0.1,0,0.2,0,0.3l-3,33.8
		c-0.1,0.6,0.1,1.3,0.5,1.8l9.2,15.5c0.1,0.2,0.3,0.4,0.3,0.7l11.6,11.3l0.5,1.5c0.5,1.4,2,2.1,3.4,1.6l7.4-2.6c1.2-0.4,2-1.7,1.7-3
		L44.4,76.3z"/>
	<path d="M84.3,21.4c0-0.1,0-0.2,0-0.3c-0.2-0.8-0.7-1.5-1.4-1.9l-1.2-0.6c-1.5-0.8-3.3,0.1-3.7,1.7c0,0.2-0.1,0.4-0.1,0.6
		l-1.1,27.3c0,0.6-0.3,1.3-0.7,1.7L55.4,71.4c-0.4,0.4-0.6,0.9-0.7,1.4l-1.3,4.5l-0.8,4.6c-0.2,1.3,0.5,2.5,1.7,3l7.4,2.6
		c1.4,0.5,2.9-0.2,3.4-1.6l0.5-1.5l11.6-11.3c0.1-0.2,0.2-0.5,0.3-0.7l9.2-15.5c0.4-0.5,0.5-1.2,0.5-1.8L84.3,21.4z"/>
	<path d="M54,56.1V46h2.3c0.8,0,1.3-0.6,1.3-1.4l-1.6-11.5l3.2,4.8c0.2,0.3,0.5,0.5,0.9,0.5l0.1,0.1c0.4,0.2,0.7,0.2,1-0.2l2.9-4.6
		v3.8v2v11.2c0,0.4,0.6,1.3,1.1,1.3h0.4c0.4,0,0.5-0.8,0.5-1.3V41h2v9.7c0,0.4,0.6,1.3,1,1.3h0.4c0.4,0,0.6-0.8,0.6-1.3V39.5v-2
		v-3.8l3.2,4.6c0.2,0.4,0.8,0.5,1.2,0.2l0.4-0.2c0.4-0.2,0.5-0.8,0.2-1.1l-4.9-7.3c0,0,0,0,0,0c-0.2-0.5-0.7-0.8-1.3-0.8h-0.4
		c1.4-0.5,2.3-1.7,2.3-3.2c0-1.9-1.5-3.4-3.4-3.4s-3.4,1.5-3.4,3.4c0,1.5,1,2.8,2.3,3.2h-0.4c-0.6,0-1.1,0.3-1.3,0.8c0,0,0,0,0,0
		l-3.6,5.4l-6.4-9.6c0,0,0-0.1,0-0.1c-0.6-0.9-1.6-1.5-2.7-1.5h-0.5c2.1-0.6,3.7-2.5,3.7-4.8c0-2.8-2.2-5-5-5s-5,2.2-5,5
		c0,2.3,1.6,4.3,3.7,4.8c-1.3,0-2.4,0.9-3,2l-6.1,9.1l-3.6-5.3c0,0,0,0,0,0c-0.2-0.5-0.7-0.8-1.3-0.8h-0.4c1.4-0.5,2.3-1.7,2.3-3.2
		c0-1.9-1.5-3.4-3.4-3.4s-3.4,1.5-3.4,3.4c0,1.5,1,2.8,2.3,3.2h-0.4c-0.6,0-1.1,0.3-1.3,0.8c0,0,0,0,0,0l-4.9,7.3
		c-0.2,0.4-0.1,0.9,0.2,1.1l0.3,0.2c0.4,0.2,0.7,0.1,1-0.2l2.9-4.6v3.8v2v11.2c0,0.4,0.6,1.3,1.1,1.3h0.4c0.4,0,0.5-0.8,0.5-1.3V41
		h2v9.7c0,0.4,0.6,1.3,1,1.3h0.4c0.4,0,0.6-0.8,0.6-1.3V39.5v-2v-3.8l3.2,4.6c0.2,0.4,0.8,0.5,1.2,0.2l0.2-0.1
		c0.3,0,0.7-0.2,0.9-0.5l3.2-4.7l-1.6,11.4c-0.1,0.8,0.5,1.4,1.3,1.4H47v10.1c0,0.7,0.5,0.9,1.2,0.9h0.6c0.7,0,1.3-0.3,1.3-0.9V46h1
		v10.1c0,0.7,0.5,0.9,1.1,0.9h0.6C53.4,57,54,56.7,54,56.1z"/>
</g>
</svg>
