<?xml version="1.0" encoding="utf-8"?>
<!-- Generator: Adobe Illustrator 19.2.1, SVG Export Plug-In . SVG Version: 6.00 Build 0)  -->
<!DOCTYPE svg PUBLIC "-//W3C//DTD SVG 1.1//EN" "http://www.w3.org/Graphics/SVG/1.1/DTD/svg11.dtd">
<svg version="1.1" id="Layer_1" xmlns="http://www.w3.org/2000/svg" xmlns:xlink="http://www.w3.org/1999/xlink" x="0px" y="0px"
	 viewBox="0 0 100 100" enable-background="new 0 0 100 100" xml:space="preserve">
<path d="M32.8,39.9l-0.6,13.7c0,0.7-0.5,1.4-1.2,1.4h-0.9l-0.9,15.4c0,0.3-0.3,0.6-0.6,0.6h-4.2c-0.3,0-0.6-0.2-0.6-0.6L22.9,55
	h-0.9c-0.7,0-1.2-1-1.2-1.7l-0.6-13.5c0-0.7,0.6-1.8,1.3-1.8h9.9C32.2,38,32.8,39.1,32.8,39.9z M26.5,36.6c2.3,0,4.2-1.9,4.2-4.2
	c0-2.3-1.9-4.2-4.2-4.2c-2.3,0-4.2,1.9-4.2,4.2C22.3,34.7,24.2,36.6,26.5,36.6z M47.3,38h-9.9c-0.7,0-1.3,1.1-1.3,1.8l0.6,13.5
	c0,0.7,0.5,1.7,1.2,1.7h0.9l0.9,15.4c0,0.3,0.3,0.6,0.6,0.6h4.2c0.3,0,0.6-0.2,0.6-0.6L45.9,55h0.9c0.7,0,1.2-0.8,1.2-1.4l0.6-13.7
	C48.6,39.1,48,38,47.3,38z M42.3,36.6c2.3,0,4.2-1.9,4.2-4.2c0-2.3-1.9-4.2-4.2-4.2c-2.3,0-4.2,1.9-4.2,4.2
	C38.1,34.7,40,36.6,42.3,36.6z M63,38h-9.9c-0.7,0-1.3,1.1-1.3,1.8l0.6,13.5c0,0.7,0.5,1.7,1.2,1.7h0.9l0.9,15.4
	c0,0.3,0.3,0.6,0.6,0.6h4.2c0.3,0,0.6-0.2,0.6-0.6L61.7,55h0.9c0.7,0,1.2-0.8,1.2-1.4l0.6-13.7C64.3,39.1,63.7,38,63,38z M58,36.6
	c2.3,0,4.2-1.9,4.2-4.2c0-2.3-1.9-4.2-4.2-4.2c-2.3,0-4.2,1.9-4.2,4.2C53.8,34.7,55.7,36.6,58,36.6z M73.8,36.6
	c2.3,0,4.2-1.9,4.2-4.2c0-2.3-1.9-4.2-4.2-4.2c-2.3,0-4.2,1.9-4.2,4.2C69.6,34.7,71.5,36.6,73.8,36.6z M78.8,38h-9.9
	c-0.7,0-1.3,1.1-1.3,1.8l0.6,13.5c0,0.7,0.5,1.7,1.2,1.7h0.9l0.9,15.4c0,0.3,0.3,0.6,0.6,0.6h4.2c0.3,0,0.6-0.2,0.6-0.6L77.4,55h0.9
	c0.7,0,1.2-0.8,1.2-1.4l0.6-13.7C80.1,39.1,79.5,38,78.8,38z"/>
</svg>
