<?xml version="1.0" encoding="utf-8"?>
<!-- Generator: Adobe Illustrator 19.2.1, SVG Export Plug-In . SVG Version: 6.00 Build 0)  -->
<!DOCTYPE svg PUBLIC "-//W3C//DTD SVG 1.1//EN" "http://www.w3.org/Graphics/SVG/1.1/DTD/svg11.dtd">
<svg version="1.1" id="Layer_1" xmlns="http://www.w3.org/2000/svg" xmlns:xlink="http://www.w3.org/1999/xlink" x="0px" y="0px"
	 viewBox="0 0 100 100" enable-background="new 0 0 100 100" xml:space="preserve">
<g>
	<path d="M57,50.6c-0.2-0.4-0.5-0.7-0.9-1c-0.3-0.3-0.7-0.5-1.2-0.7c0.7-0.4,1.2-1,1.5-1.6c0.3-0.7,0.5-1.4,0.5-2.3
		c0-0.7-0.1-1.2-0.3-1.7c-0.2-0.5-0.4-0.9-0.7-1.3c-0.3-0.4-0.7-0.6-1.1-0.9c-0.4-0.2-0.9-0.4-1.4-0.5c-0.5-0.1-1.2-0.2-1.7-0.3
		S51,40.1,50,40.1v-1.7c0-0.1,0.2-0.2,0.1-0.3s0-0.2-0.1-0.3c-0.1-0.1-0.1-0.2-0.2-0.2s-0.2-0.1-0.3-0.1c-0.1,0-0.2,0-0.3,0.1
		c-0.1,0-0.2,0.1-0.2,0.2C49,37.8,49,37.9,49,38s0,0.2,0,0.3V40h-4.9c-0.2,0-0.4,0.1-0.6,0.2c-0.2,0.1-0.4,0.2-0.5,0.4
		c-0.1,0.2-0.5,0.3-0.6,0.5c-0.1,0.2-0.4,0.4-0.4,0.6v15.4c0,0.2,0.3,0.4,0.4,0.6c0.1,0.2,0.3,0.4,0.5,0.5c0.2,0.1,0.4,0.4,0.6,0.5
		c0.2,0.1,0.5,0.2,0.7,0.2H49v1.7c0,0.1,0,0.2,0,0.3s0,0.2,0.1,0.3s0.1,0.2,0.2,0.2c0.1,0.1,0.2,0.1,0.3,0.1s0.2,0,0.3-0.1
		c0.1,0,0.2-0.1,0.2-0.2s-0.1-0.2,0-0.3S50,60.8,50,60.7V59h1.7c0.7,0,1.3-0.2,1.8-0.3c0.6-0.1,1.1-0.4,1.5-0.7
		c0.4-0.3,0.8-0.6,1.2-0.9c0.3-0.4,0.6-0.7,0.9-1.2c0.2-0.4,0.4-0.9,0.5-1.3s0.2-0.9,0.2-1.4c0-0.5-0.1-1-0.2-1.4
		C57.5,51.4,57.3,50.9,57,50.6z M49,56h-3v-5h3V56z M49,48h-3v-5h3V48z M50,42.9c1,0,1.1,0,1.5,0s0.9,0.1,1.1,0.3s0.6,0.4,0.7,0.7
		s0.3,0.8,0.3,1.4c0,0.8-0.4,1.4-1,1.8c-0.5,0.4-0.7,0.6-2.7,0.6V42.9z M54.3,54.3c-0.1,0.4-0.3,0.7-0.6,0.9c-0.3,0.2-0.6,0.4-1,0.6
		c-0.4,0.1-0.8,0.2-1.3,0.2H50v-5h0.8c0.4,0,0.9-0.2,1.3-0.1c0.4,0.1,0.8,0.1,1.2,0.3s0.6,0.4,0.8,0.7c0.2,0.3,0.3,0.7,0.3,1.2
		C54.5,53.6,54.4,54,54.3,54.3z"/>
	<path d="M73.7,56.1l8-0.9l0-9.1l-8-0.9c-0.6-2.8-1.7-5.4-3.2-7.7l5-6.3L69,24.9L62.7,30c-2.3-1.5-4.9-2.5-7.6-3.1l-0.9-8.1l-9.1,0
		l-0.9,8.1c-2.8,0.6-5.3,1.7-7.6,3.2L30.3,25l-6.4,6.4l5.1,6.4c-1.5,2.3-2.5,4.9-3.2,7.6l-8.1,0.9l0,9.1l8.1,0.9
		c0.6,2.7,1.7,5.3,3.2,7.6l-5.1,6.4l6.4,6.4l6.3-5.1c2.3,1.5,4.9,2.6,7.7,3.2l0.9,8.1l9.1,0l0.9-8.1c2.8-0.6,5.4-1.7,7.7-3.2l6.3,5
		l6.4-6.4l-5.1-6.3C72,61.5,73.1,58.9,73.7,56.1z M49.8,71.2c-11.3,0-20.4-9.1-20.5-20.4c0-11.3,9.1-20.4,20.4-20.5
		c11.3,0,20.4,9.1,20.5,20.4C70.2,62,61.1,71.2,49.8,71.2z"/>
</g>
</svg>
