<?xml version="1.0" encoding="utf-8"?>
<!-- Generator: Adobe Illustrator 19.2.1, SVG Export Plug-In . SVG Version: 6.00 Build 0)  -->
<!DOCTYPE svg PUBLIC "-//W3C//DTD SVG 1.1//EN" "http://www.w3.org/Graphics/SVG/1.1/DTD/svg11.dtd">
<svg version="1.1" id="Layer_1" xmlns="http://www.w3.org/2000/svg" xmlns:xlink="http://www.w3.org/1999/xlink" x="0px" y="0px"
	 viewBox="0 0 100 100" enable-background="new 0 0 100 100" xml:space="preserve">
<g>
	<path d="M73.1,49.5c0-11.7-9.5-21.2-21.2-21.2c-11.7,0-21.2,9.5-21.2,21.2S40.3,70.7,52,70.7C63.6,70.7,73.1,61.2,73.1,49.5z
		 M52,65.7c-8.9,0-16.2-7.3-16.2-16.2c0-8.9,7.3-16.2,16.2-16.2c8.9,0,16.2,7.3,16.2,16.2C68.1,58.4,60.9,65.7,52,65.7z"/>
	<path d="M57.8,50.4c-0.2-0.3-0.4-0.6-0.7-0.8c-0.3-0.2-0.6-0.4-0.9-0.6c0.5-0.3,0.9-0.8,1.2-1.3c0.3-0.5,0.4-1.1,0.4-1.8
		c0-0.5-0.1-1-0.2-1.4s-0.3-0.7-0.6-1c-0.2-0.3-0.5-0.5-0.9-0.7c-0.3-0.2-0.7-0.3-1.1-0.4c-0.4-0.1-0.6-0.2-1-0.2
		c-0.4,0-1-0.1-1-0.1v-1.3c0-0.1-0.2-0.2-0.3-0.3c0-0.1-0.2-0.2-0.2-0.2c0-0.1-0.2-0.1-0.2-0.2c-0.1,0-0.2-0.1-0.3-0.1
		c-0.1,0-0.2,0-0.3,0.1c-0.1,0-0.1,0.1-0.2,0.2c0,0.1-0.3,0.1-0.3,0.2S51,40.8,51,40.9V42h-3.3c-0.2,0-0.3,0.1-0.5,0.2
		s-0.3,0.2-0.4,0.3s-0.4,0.3-0.5,0.4S46,43.3,46,43.5v12.1c0,0.2,0.2,0.3,0.3,0.5s0.3,0.3,0.4,0.4s0.3,0.3,0.5,0.4s0.4,0.2,0.5,0.2
		H51v1.3c0,0.1,0.2,0.2,0.2,0.3c0,0.1,0.2,0.2,0.2,0.2c0,0.1,0.2,0.1,0.2,0.2c0.1,0,0.2,0.1,0.3,0.1s0.2,0,0.3-0.1
		c0.1,0,0.1-0.1,0.2-0.2c0-0.1,0.3-0.1,0.3-0.2c0-0.1,0.3-0.2,0.3-0.3V57h0.6c0.5,0,1-0.1,1.4-0.3c0.4-0.1,0.8-0.3,1.2-0.5
		c0.4-0.2,0.7-0.5,0.9-0.7c0.3-0.3,0.5-0.6,0.7-0.9s0.3-0.7,0.4-1c0.1-0.4,0.1-0.7,0.1-1.1c0-0.4,0-0.8-0.1-1.1
		C58.1,51,58,50.7,57.8,50.4z M51,55h-2v-5h2V55z M51,48h-2v-4h2V48z M53,44.4c0,0,0.5,0,0.8,0s0.5,0.1,0.7,0.2
		c0.2,0.1,0.4,0.3,0.5,0.6c0.1,0.3,0.2,0.6,0.2,1.1c0,0.6,0,1.1-0.4,1.4C54.4,48,53,48.2,53,48.2V44.4z M55.6,53.3
		c-0.1,0.3-0.3,0.5-0.5,0.7c-0.2,0.2-0.5,0.5-0.8,0.6s-0.6,0.3-1,0.3H53v-5h-0.1c0.3,0,0.7,0.2,1,0.3c0.3,0.1,0.6,0.3,0.9,0.4
		s0.5,0.4,0.7,0.7c0.2,0.3,0.3,0.6,0.3,1C55.8,52.7,55.7,53.1,55.6,53.3z"/>
	<path d="M35.1,32c2.8-2.7,5.8-4.4,8.5-5.5c0,0,0,0,0,0c2.7-1,5.5-1.5,8.4-1.5c4.3,0,8.5,1.1,12.2,3.2l3.5-6.1
		C62.9,19.4,57.5,18,52,18c-4,0-7.9,0.8-11.5,2.2c-0.7-1.2-1.4-2.5-2-3.7c-0.1-0.2-0.3-0.1-0.4,0c-0.8,2.4-3.1,8.9-5,14.2
		C32.5,31.9,34.1,32.9,35.1,32z"/>
	<path d="M45.5,73.4c-3.8-1-6.8-2.4-9.2-4.4c0,0,0,0,0,0c-2.2-2-4.1-3.9-5.6-6.3c-2.2-3.7-3.5-7.8-3.6-12.1l-7,0.2
		c0.1,5.5,1.7,10.9,4.6,15.6c2.1,3.4,4.8,6.3,7.9,8.7c-0.7,1.2-1.4,2.5-2.1,3.7c-0.1,0.2,0,0.3,0.2,0.3c2.5-0.5,9.2-1.9,14.7-3.1
		C46.8,75.7,46.8,73.8,45.5,73.4z"/>
	<path d="M88.6,51.4c-1.7-1.8-6.4-6.9-10.3-11c-0.9-1-2.6,0-2.2,1.3c1.1,3.8,1.4,7.1,1,10.1c0,0,0,0,0,0c-0.6,2.9-1.2,5.5-2.5,8.1
		c-2,3.8-4.9,7-8.5,9.3l3.8,5.9c4.6-3,8.4-7.1,10.9-12c1.8-3.5,2.9-7.4,3.3-11.3c1.4,0,2.8-0.1,4.3-0.1
		C88.6,51.7,88.7,51.5,88.6,51.4z"/>
</g>
</svg>
