<?xml version="1.0" encoding="utf-8"?>
<!-- Generator: Adobe Illustrator 19.2.1, SVG Export Plug-In . SVG Version: 6.00 Build 0)  -->
<!DOCTYPE svg PUBLIC "-//W3C//DTD SVG 1.1//EN" "http://www.w3.org/Graphics/SVG/1.1/DTD/svg11.dtd">
<svg version="1.1" id="Layer_1" xmlns="http://www.w3.org/2000/svg" xmlns:xlink="http://www.w3.org/1999/xlink" x="0px" y="0px"
	 viewBox="0 0 100 100" enable-background="new 0 0 100 100" xml:space="preserve">
<g>
	<path d="M45.1,60.7c11.7,0,21.2-9.5,21.2-21.2c0-11.7-9.5-21.2-21.2-21.2S24,27.9,24,39.6C24,51.2,33.4,60.7,45.1,60.7z M45.1,23.4
		c8.9,0,16.2,7.3,16.2,16.2S54,55.7,45.1,55.7S29,48.5,29,39.6S36.2,23.4,45.1,23.4z"/>
	<path d="M39.9,46.5c0.1,0.1,0.3,0.3,0.4,0.3s0.3,0.1,0.5,0.1H45v1.4c0,0.1-0.2,0.2-0.2,0.3c0,0.1-0.1,0.2,0,0.2
		c0,0.1,0.1,0.1,0.1,0.2c0.1,0,0.1,0.1,0.2,0.1s0.2,0,0.2-0.1s0.1-0.1,0.2-0.2c0-0.1,0.2-0.1,0.3-0.2c0-0.1,0.2-0.2,0.2-0.3V47h0.8
		c0.5,0,1-0.1,1.4-0.2c0.4-0.1,0.8-0.3,1.2-0.5c0.4-0.2,0.7-0.5,0.9-0.7c0.3-0.3,0.5-0.6,0.7-0.9s0.3-0.7,0.4-1
		c0.1-0.4,0.1-0.7,0.1-1.1c0-0.4,0-0.8-0.1-1.1c-0.1-0.4-0.2-0.7-0.4-1c-0.2-0.3-0.4-0.6-0.7-0.8c-0.3-0.2-0.6-0.4-0.9-0.6
		c0.5-0.3,0.9-0.8,1.2-1.3c0.3-0.5,0.4-1.1,0.4-1.8c0-0.5-0.1-1-0.2-1.4s-0.3-0.7-0.6-1c-0.2-0.3-0.5-0.5-0.9-0.7
		c-0.3-0.2-0.7-0.3-1.1-0.4c-0.4-0.1-0.6-0.2-1.1-0.2c-0.4,0-1.1-0.1-1.1-0.1v-1.3c0-0.1-0.2-0.2-0.2-0.3c0-0.1-0.1-0.2-0.2-0.2
		c0-0.1-0.1-0.1-0.2-0.2c-0.1,0-0.2-0.1-0.3-0.1c-0.1,0-0.2,0-0.3,0.1c-0.1,0-0.1,0.1-0.2,0.2c0,0.1,0.1,0.1,0.1,0.2
		c0,0.1,0.2,0.2,0.2,0.3V32h-4.2c-0.2,0-0.3,0.2-0.5,0.2s-0.3,0.2-0.4,0.3s0,0.3,0,0.4s0.1,0.4,0.1,0.5v12.1c0,0.2-0.2,0.3-0.1,0.5
		S39.8,46.4,39.9,46.5z M46,34.5c0,0,0.6,0,0.9,0s0.5,0.1,0.8,0.2c0.2,0.1,0.4,0.3,0.5,0.6c0.1,0.3,0.2,0.6,0.2,1.1
		c0,0.6-0.1,1.1-0.5,1.4c-0.4,0.3-0.9,0.5-1.9,0.5V34.5z M46,41L46,41c0.4,0,0.8-0.2,1.1-0.2c0.3,0.1,0.6,0,0.9,0.2s0.5,0.3,0.7,0.5
		c0.2,0.3,0.3,0.5,0.3,0.9c0,0.4-0.1,0.7-0.2,0.9s-0.3,0.5-0.5,0.7c-0.2,0.2-0.5,0.5-0.8,0.6s-0.6,0.3-1,0.3H46V41z M42,34h3v4h-3
		V34z M42,41h3v4h-3V41z"/>
	<path d="M92.2,59.6l-5.4-1.6l-8.3-1.8c-0.6-0.2-1.2-0.2-1.8,0L44.7,67.1c-0.7,0.2-1.5,0.2-2.3-0.1L12.4,53.6
		c-0.2-0.1-0.4-0.2-0.6-0.2C9.9,53,8,54.5,8,56.5v1.6c0,1,0.4,1.9,1.2,2.5c0.1,0.1,0.2,0.1,0.3,0.2l34.9,21.2
		c0.7,0.4,1.4,0.5,2.2,0.4l33-5.6c0.3-0.1,0.6-0.1,0.9,0l7.5-1.8l1.9,0.2c1.8,0.2,3.3-1.1,3.5-2.8l1.1-9.4
		C94.6,61.5,93.7,60.1,92.2,59.6z"/>
</g>
</svg>
